<svg width="1437" height="730" viewBox="0 0 1437 730" fill="none" xmlns="http://www.w3.org/2000/svg">
<line y1="-0.5" x2="1800.42" y2="-0.5" transform="matrix(0.687662 -0.726031 0.687662 0.726031 105.649 1018.2)" stroke="#BECDF8"/>
<line y1="-0.5" x2="1800.42" y2="-0.5" transform="matrix(0.687662 -0.726031 0.687662 0.726031 -305.213 265.234)" stroke="#BECDF8"/>
<line y1="-0.5" x2="1800.42" y2="-0.5" transform="matrix(0.687662 -0.726031 0.687662 0.726031 135.879 1076.23)" stroke="#BECDF8"/>
<line y1="-0.5" x2="1800.42" y2="-0.5" transform="matrix(0.687662 -0.726031 0.687662 0.726031 -274.982 323.264)" stroke="#BECDF8"/>
<line y1="-0.5" x2="1800.42" y2="-0.5" transform="matrix(0.687662 -0.726031 0.687662 0.726031 166.11 1134.26)" stroke="#BECDF8"/>
<line y1="-0.5" x2="1800.42" y2="-0.5" transform="matrix(0.687662 -0.726031 0.687662 0.726031 -244.751 381.299)" stroke="#BECDF8"/>
<line y1="-0.5" x2="1800.42" y2="-0.5" transform="matrix(0.687662 -0.726031 0.687662 0.726031 196.341 1192.29)" stroke="#BECDF8"/>
<line y1="-0.5" x2="1800.42" y2="-0.5" transform="matrix(0.687662 -0.726031 0.687662 0.726031 -214.521 439.328)" stroke="#BECDF8"/>
<line y1="-0.5" x2="1800.42" y2="-0.5" transform="matrix(0.687662 -0.726031 0.687662 0.726031 226.571 1250.32)" stroke="#BECDF8"/>
<line y1="-0.5" x2="1800.42" y2="-0.5" transform="matrix(0.687662 -0.726031 0.687662 0.726031 -184.291 497.357)" stroke="#BECDF8"/>
<line y1="-0.5" x2="1800.42" y2="-0.5" transform="matrix(0.687662 -0.726031 0.687662 0.726031 256.802 1308.35)" stroke="#BECDF8"/>
<line y1="-0.5" x2="1800.42" y2="-0.5" transform="matrix(0.687662 -0.726031 0.687662 0.726031 -154.06 555.393)" stroke="#BECDF8"/>
<line y1="-0.5" x2="1800.42" y2="-0.5" transform="matrix(0.687662 -0.726031 0.687662 0.726031 287.033 1366.38)" stroke="#BECDF8"/>
<line y1="-0.5" x2="1800.42" y2="-0.5" transform="matrix(0.687662 -0.726031 0.687662 0.726031 -123.829 613.426)" stroke="#BECDF8"/>
<line y1="-0.5" x2="1800.42" y2="-0.5" transform="matrix(0.687662 -0.726031 0.687662 0.726031 317.264 1424.41)" stroke="#BECDF8"/>
<line y1="-0.5" x2="1800.42" y2="-0.5" transform="matrix(0.687662 -0.726031 0.687662 0.726031 -93.5989 671.456)" stroke="#BECDF8"/>
<line y1="-0.5" x2="1800.42" y2="-0.5" transform="matrix(0.687662 -0.726031 0.687662 0.726031 347.494 1482.44)" stroke="#BECDF8"/>
<line y1="-0.5" x2="1800.42" y2="-0.5" transform="matrix(0.687662 -0.726031 0.687662 0.726031 -63.3679 729.486)" stroke="#BECDF8"/>
<line y1="-0.5" x2="1800.42" y2="-0.5" transform="matrix(0.687662 -0.726031 0.687662 0.726031 377.725 1540.48)" stroke="#BECDF8"/>
<line y1="-0.5" x2="1800.42" y2="-0.5" transform="matrix(0.687662 -0.726031 0.687662 0.726031 -33.137 787.521)" stroke="#BECDF8"/>
<line y1="-0.5" x2="1800.42" y2="-0.5" transform="matrix(0.687662 -0.726031 0.687662 0.726031 407.956 1598.51)" stroke="#BECDF8"/>
<line y1="-0.5" x2="1800.42" y2="-0.5" transform="matrix(0.687662 -0.726031 0.687662 0.726031 438.187 1656.54)" stroke="#BECDF8"/>
<line y1="-0.5" x2="1800.42" y2="-0.5" transform="matrix(0.687662 -0.726031 0.687662 0.726031 -1.53247 849.905)" stroke="#BECDF8"/>
<line y1="-0.5" x2="1800.42" y2="-0.5" transform="matrix(0.687662 -0.726031 0.687662 0.726031 468.417 1714.58)" stroke="#BECDF8"/>
<line y1="-0.5" x2="1800.42" y2="-0.5" transform="matrix(0.687662 -0.726031 0.687662 0.726031 28.6975 907.935)" stroke="#BECDF8"/>
<line y1="-0.5" x2="1800.42" y2="-0.5" transform="matrix(0.687662 -0.726031 0.687662 0.726031 498.647 1772.61)" stroke="#BECDF8"/>
<line y1="-0.5" x2="1800.42" y2="-0.5" transform="matrix(0.687662 -0.726031 0.687662 0.726031 58.9285 965.969)" stroke="#BECDF8"/>
</svg>
